<svg preserveAspectRatio="none" width="100%" height="100%" overflow="visible" style="display: block;" viewBox="0 0 34.2319 21.6355" fill="none" xmlns="http://www.w3.org/2000/svg">
<g id="RUN">
<path id="Vector" d="M23.7065 21.4406V0H28.1165L30.09 10.2696V0H34.2319V21.4406H30.0413L27.8972 10.7203V21.4406H23.7065Z" fill="var(--fill-0, #D4FF3F)"/>
<path id="Vector_2" d="M16.848 21.6355C15.0613 21.6355 13.7456 21.1361 12.901 20.1371C12.0563 19.1301 11.634 17.652 11.634 15.7028V0H15.8003V15.5323C15.8003 15.8896 15.8206 16.2348 15.8612 16.5678C15.9018 16.8926 15.9952 17.1606 16.1414 17.3718C16.2876 17.5829 16.5231 17.6885 16.848 17.6885C17.181 17.6885 17.4205 17.587 17.5667 17.384C17.7129 17.1728 17.8022 16.9007 17.8347 16.5678C17.8753 16.2348 17.8956 15.8896 17.8956 15.5323V0H22.0619V15.7028C22.0619 17.652 21.6396 19.1301 20.795 20.1371C19.9504 21.1361 18.6347 21.6355 16.848 21.6355Z" fill="var(--fill-0, #D4FF3F)"/>
<path id="Vector_3" d="M0 21.4406V0H6.57837C7.67477 0 8.50315 0.251765 9.06353 0.755295C9.62391 1.2507 9.9975 1.94915 10.1843 2.85063C10.3792 3.74399 10.4767 4.79571 10.4767 6.00581C10.4767 7.1753 10.3264 8.10926 10.0259 8.80771C9.73355 9.50615 9.17723 9.98938 8.35697 10.2574C9.03105 10.3955 9.50209 10.7325 9.7701 11.2685C10.0462 11.7964 10.1843 12.4827 10.1843 13.3273V21.4406H5.95708V13.0471C5.95708 12.4218 5.82714 12.036 5.56725 11.8898C5.31549 11.7355 4.90535 11.6583 4.33685 11.6583V21.4406H0ZM4.36122 7.94277H5.3967C5.98957 7.94277 6.286 7.29712 6.286 6.00581C6.286 5.1693 6.22103 4.6211 6.09109 4.36122C5.96114 4.10133 5.7175 3.97139 5.36015 3.97139H4.36122V7.94277Z" fill="var(--fill-0, #D4FF3F)"/>
</g>
</svg>
