<svg preserveAspectRatio="none" width="100%" height="100%" overflow="visible" style="display: block;" viewBox="0 0 30 28" fill="none" xmlns="http://www.w3.org/2000/svg">
<g id="file-text">
<path id="Vector" d="M17.5 2.33333H7.5C6.83696 2.33333 6.20107 2.57917 5.73223 3.01675C5.26339 3.45434 5 4.04783 5 4.66667V23.3333C5 23.9522 5.26339 24.5457 5.73223 24.9833C6.20107 25.4208 6.83696 25.6667 7.5 25.6667H22.5C23.163 25.6667 23.7989 25.4208 24.2678 24.9833C24.7366 24.5457 25 23.9522 25 23.3333V9.33333L17.5 2.33333Z" stroke="var(--stroke-0, white)" stroke-width="2" stroke-linecap="round" stroke-linejoin="round"/>
<path id="Vector_2" d="M17.5 2.33333V9.33333H25" stroke="var(--stroke-0, white)" stroke-width="2" stroke-linecap="round" stroke-linejoin="round"/>
<path id="Vector_3" d="M20 15.1667H10" stroke="var(--stroke-0, white)" stroke-width="2" stroke-linecap="round" stroke-linejoin="round"/>
<path id="Vector_4" d="M20 19.8333H10" stroke="var(--stroke-0, white)" stroke-width="2" stroke-linecap="round" stroke-linejoin="round"/>
<path id="Vector_5" d="M12.5 10.5H11.25H10" stroke="var(--stroke-0, white)" stroke-width="2" stroke-linecap="round" stroke-linejoin="round"/>
</g>
</svg>
