<svg preserveAspectRatio="none" width="100%" height="100%" overflow="visible" style="display: block;" viewBox="0 0 15 20" fill="none" xmlns="http://www.w3.org/2000/svg">
<g id="Group 1707482689">
<path id="Vector" fill-rule="evenodd" clip-rule="evenodd" d="M14.7415 0.142651C14.8219 0.208738 14.887 0.294238 14.9319 0.392417C14.9768 0.490596 15.0001 0.598774 15 0.708431V13.9821C14.9999 14.5978 14.8156 15.1967 14.475 15.6882C14.1344 16.1797 13.6561 16.537 13.1123 16.7061L11.9672 17.0622C11.6863 17.154 11.3915 17.1842 11.0998 17.1509C10.8081 17.1176 10.5253 17.0215 10.268 16.8683C10.0107 16.7151 9.78383 16.5078 9.60069 16.2583C9.41755 16.0089 9.28174 15.7223 9.20114 15.4152C9.12054 15.1082 9.09676 14.7868 9.13118 14.4696C9.16559 14.1525 9.25753 13.8459 9.40164 13.5678C9.54574 13.2896 9.73916 13.0454 9.97065 12.8493C10.2021 12.6532 10.4671 12.5092 10.7502 12.4255L12.7549 11.8021C13.0268 11.7175 13.266 11.5388 13.4363 11.2931C13.6066 11.0473 13.6987 10.7479 13.6988 10.44V5.18934L5.89133 7.61869V16.8157C5.89121 17.4314 5.70692 18.0303 5.36633 18.5218C5.02574 19.0133 4.5474 19.3706 4.00367 19.5398L2.85858 19.8958C2.57731 19.9889 2.28184 20.0201 1.98939 19.9875C1.69695 19.9549 1.41338 19.8593 1.15523 19.7062C0.897084 19.5531 0.669515 19.3455 0.485794 19.0956C0.302073 18.8458 0.165877 18.5586 0.0851478 18.2508C0.00441869 17.943 -0.0192283 17.6208 0.0155854 17.303C0.0503992 16.9852 0.142977 16.6781 0.287921 16.3996C0.432865 16.1211 0.627275 15.8769 0.859815 15.6811C1.09236 15.4853 1.35837 15.3418 1.64235 15.2591L3.64626 14.6357C3.91813 14.5511 4.1573 14.3725 4.32759 14.1267C4.49789 13.881 4.59003 13.5815 4.59009 13.2737V3.54206C4.59012 3.38813 4.6362 3.2384 4.72134 3.11553C4.80649 2.99265 4.92608 2.90332 5.06201 2.86104L14.1707 0.0274171C14.2675 -0.00280392 14.3695 -0.00812562 14.4685 0.0118713C14.5676 0.0318681 14.661 0.0766372 14.7415 0.142651Z" fill="var(--fill-0, white)"/>
</g>
</svg>
