<svg preserveAspectRatio="none" width="100%" height="100%" overflow="visible" style="display: block;" viewBox="0 0 90.5194 74.0107" fill="none" xmlns="http://www.w3.org/2000/svg">
<path id="Vector 1" d="M10.7054 3.27218C12.2162 -0.842902 24.6797 1.55756 30.7226 3.27218C30.7226 2.57364 30.9492 1.17655 31.8558 1.17655H39.7871V7.84451L37.1434 11.8453C38.6541 12.4549 38.78 13.8774 38.6541 14.5125L41.2979 19.2753C40.6936 20.9518 40.6684 23.9111 40.7313 25.1812C41.0461 26.3243 41.7511 29.4106 42.0532 32.6112C42.3554 35.8118 44.5711 38.3901 45.6412 39.2792C49.418 36.993 57.4249 32.2302 59.2378 31.4681C61.0507 30.7061 66.9173 30.6426 69.624 30.7061L71.3236 38.7077H74.1562L77.5554 45.5661C79.0661 48.6143 81.9617 53.1867 83.2206 55.0918H85.6755L88.697 61.5692L89.4524 70.8926C82.6541 72.4073 67.4838 72.9287 60.7485 73V64.2364H44.1305L42.4309 71.2854L22.9803 69.7613L22.2249 41.7559L12.594 37.9456L11.6498 35.4689L5.98455 34.8974L1.45236 21.3709L10.7054 22.514C10.076 17.8147 9.19471 7.38727 10.7054 3.27218Z" stroke="var(--stroke-0, #FF4E16)" stroke-width="2"/>
</svg>
